<?xml version="1.0" standalone="no"?><!DOCTYPE svg PUBLIC "-//W3C//DTD SVG 1.1//EN" "http://www.w3.org/Graphics/SVG/1.1/DTD/svg11.dtd"><svg t="1738499346151" class="icon" viewBox="0 0 1024 1024" version="1.1" xmlns="http://www.w3.org/2000/svg" p-id="5000" xmlns:xlink="http://www.w3.org/1999/xlink" width="200" height="200"><path d="M512 1023.38118C229.611741 1023.38118 0.633554 794.373525 0.633554 512 0.633554 229.626475 229.611741 0.61882 512 0.61882c282.373525 0 511.38118 229.007655 511.38118 511.38118-0.014734 282.373525-229.007655 511.38118-511.38118 511.38118z" fill="#D7D7D8" p-id="5001"></path><path d="M230.731511 314.139626h590.708029c44.171971 0 80.299281 36.142043 80.29928 80.29928V610.716547H150.417496V394.438906c0-44.171971 36.127309-80.299281 80.314015-80.29928z" fill="#E74A48" p-id="5002"></path><path d="M160.230216 443.79718v-49.358274c0-13.569842 3.344576-26.388259 9.223367-37.615424h126.533985c5.33364 0 9.694849 4.464345 9.694849 9.901122v67.289324c0 5.436777-4.375942 9.901122-9.694849 9.901122h-134.372374c-0.471482-0.014734-0.92823-0.044201-1.384978-0.11787zM341.39718 356.823482h104.109122c5.33364 0 9.694849 4.464345 9.694849 9.901122v67.289324c0 5.436777-4.375942 9.901122-9.694849 9.901122h-104.109122c-5.318906 0-9.694849-4.449612-9.694849-9.901122V366.724604c0.014734-5.451511 4.375942-9.901122 9.694849-9.901122zM613.191827 356.823482h104.109123c5.33364 0 9.694849 4.464345 9.694849 9.901122v67.289324c0 5.436777-4.375942 9.901122-9.694849 9.901122h-104.109123c-5.318906 0-9.694849-4.449612-9.694849-9.901122V366.724604c0.014734-5.451511 4.375942-9.901122 9.694849-9.901122zM762.710561 356.823482h104.109122c5.348374 0 9.694849 4.464345 9.694849 9.901122v67.289324c0 5.436777-4.375942 9.901122-9.694849 9.901122h-104.109122c-5.318906 0-9.694849-4.449612-9.694849-9.901122V366.724604c0-5.451511 4.361209-9.901122 9.694849-9.901122z" fill="#FFFFFF" p-id="5003"></path><path d="M148.045353 607.180432h748.124086c9.179165 0 16.708144 7.528978 16.708144 16.708144v14.321266c0 9.164432-7.543712 16.708144-16.708144 16.708144H148.045353c-9.164432 0-16.708144-7.514245-16.708144-16.708144v-14.321266c0-9.179165 7.514245-16.708144 16.708144-16.708144z" fill="#A42124" p-id="5004"></path><path d="M489.118388 356.617209h81.713727c5.981928 0 10.85882 4.375942 10.85882 9.665381v216.528115c0 5.304173-4.921094 9.665381-10.85882 9.665381h-81.713727c-5.95246 0-10.85882-4.346475-10.85882-9.665381V366.28259c0-5.318906 4.891626-9.665381 10.85882-9.665381z" fill="#F7CF6F" p-id="5005"></path><path d="M145.570072 607.696115h752.750504c3.28564 0 5.967194-2.578417 5.967194-5.716719v-7.617382c0-3.138302-2.681554-5.716719-5.967194-5.716719H145.570072c-3.270906 0-5.967194 2.578417-5.967194 5.716719v7.617382c0 3.123568 2.696288 5.716719 5.967194 5.716719z" fill="#A42124" p-id="5006"></path><path d="M588.660029 583.901007h60.364431l-23.515165-55.91482 34.904403 55.91482h60.51177l-23.500432-55.91482 34.904403 55.91482h60.51177l-23.515166-55.91482 34.904403 55.91482h60.51177l-23.500432-55.91482 34.742331 55.679079 26.181986-20.332662-20.391597 31.780835H581.278388l-47.22187-113.420892 54.603511 102.20846z" fill="#A42124" p-id="5007"></path><path d="M269.260432 709.860374c-39.147741 0-70.899108-31.751367-70.899108-70.913842 0-39.147741 31.751367-70.899108 70.899108-70.899108 39.162475 0 70.913842 31.751367 70.913841 70.899108-0.014734 39.162475-31.766101 70.913842-70.913841 70.913842z" fill="#181818" p-id="5008"></path><path d="M269.260432 686.639885c-26.31459 0-47.663885-21.349295-47.663885-47.678619 0-26.31459 21.349295-47.663885 47.663885-47.663885 26.329324 0 47.678619 21.349295 47.678618 47.663885 0 26.329324-21.349295 47.678619-47.678618 47.678619z" fill="#FFFFFF" p-id="5009"></path><path d="M269.260432 679.184576c-22.203856 0-40.208576-18.004719-40.208576-40.22331 0-22.203856 18.004719-40.208576 40.208576-40.208575 22.21859 0 40.223309 18.004719 40.223309 40.208575 0 22.21859-18.019453 40.223309-40.223309 40.22331z" fill="#E74A48" p-id="5010"></path><path d="M269.260432 658.439367c-10.755683 0-19.463367-8.722417-19.463367-19.478101 0-10.74095 8.707683-19.463367 19.463367-19.463367 10.755683 0 19.478101 8.722417 19.4781 19.463367 0 10.755683-8.722417 19.478101-19.4781 19.478101zM747.696806 709.860374c-39.147741 0-70.899108-31.751367-70.899108-70.913842 0-39.147741 31.751367-70.899108 70.899108-70.899108 39.162475 0 70.913842 31.751367 70.913841 70.899108-0.014734 39.162475-31.766101 70.913842-70.913841 70.913842z" fill="#181818" p-id="5011"></path><path d="M747.696806 686.639885c-26.31459 0-47.663885-21.349295-47.663885-47.678619 0-26.31459 21.349295-47.663885 47.663885-47.663885 26.329324 0 47.678619 21.349295 47.678618 47.663885 0 26.329324-21.349295 47.678619-47.678618 47.678619z" fill="#FFFFFF" p-id="5012"></path><path d="M747.696806 679.184576c-22.203856 0-40.223309-18.004719-40.22331-40.22331 0-22.203856 18.019453-40.208576 40.22331-40.208575 22.21859 0 40.223309 18.004719 40.223309 40.208575 0 22.21859-18.004719 40.223309-40.223309 40.22331z" fill="#E74A48" p-id="5013"></path><path d="M747.696806 658.439367c-10.74095 0-19.463367-8.722417-19.463367-19.478101 0-10.74095 8.722417-19.463367 19.463367-19.463367 10.755683 0 19.478101 8.722417 19.4781 19.463367 0 10.755683-8.722417 19.478101-19.4781 19.478101z" fill="#181818" p-id="5014"></path><path d="M160.613295 527.529439c0.338878 1.23764-0.383079 2.504748-1.620719 2.843626-1.23764 0.338878-2.504748-0.383079-2.85836-1.62072l-10.534676-38.086906c-2.932029-10.593612-5.746187-16.870216-9.856921-20.229525-3.992863-3.270906-9.591712-3.963396-18.137324-3.432979-1.281842 0.073669-2.372144-0.898763-2.460547-2.180604-0.073669-1.281842 0.898763-2.386878 2.180605-2.460547 9.73905-0.604086 16.266129 0.30941 21.349294 4.464345 4.980029 4.066532 8.206734 11.035626 11.403972 22.586936l10.534676 38.116374z" fill="#F7CF6F" p-id="5015"></path><path d="M117.472691 443.325698c4.611683 0 8.339338 9.576978 8.339338 21.393496s-3.742388 21.378763-8.339338 21.378763c-4.611683 0-8.339338-9.576978-8.339338-21.378763-0.014734-11.816518 3.727655-21.393496 8.339338-21.393496z" fill="#F7CF6F" p-id="5016"></path><path d="M167.081439 500.345554h11.35977c3.123568 0 5.687252 2.563683 5.687251 5.687252v26.918676c0 3.123568-2.563683 5.687252-5.687251 5.687252h-11.35977c-3.123568 0-5.687252-2.563683-5.687252-5.687252v-26.918676c0-3.138302 2.563683-5.687252 5.687252-5.687252z" fill="#323333" p-id="5017"></path><path d="M901.341007 551.442417c18.048921 4.022331 18.048921 33.946705 0 37.969036v-37.969036z" fill="#F7CF6F" p-id="5018"></path><path d="M491.446331 363.556835l76.969439 0.103136c2.254273 0 4.081266 1.782791 4.081266 3.97813l0.103137 68.689036c0 2.195338-1.812259 3.963396-4.066533 3.963395l-76.969439-0.103136c-2.254273 0-4.081266-1.782791-4.081266-3.97813l-0.103136-68.689036c0-2.195338 1.812259-3.963396 4.066532-3.963395z" fill="#E09753" p-id="5019"></path><path d="M497.634532 459.753899h-5.893525c-1.620719 0-2.946763-1.326043-2.946762-2.946762s1.326043-2.946763 2.946762-2.946763h5.893525c1.620719 0 2.946763 1.326043 2.946763 2.946763s-1.326043 2.946763-2.946763 2.946762z" fill="#E74A48" p-id="5020"></path></svg>